<svg width="34" height="34" viewBox="0 0 34 34" fill="none" xmlns="http://www.w3.org/2000/svg">
<path d="M31.79 17.6481L28.6025 10.2106C28.5212 10.0186 28.3851 9.85472 28.2113 9.73947C28.0375 9.62422 27.8336 9.56267 27.625 9.5625H24.4375V7.4375C24.4375 7.15571 24.3256 6.88546 24.1263 6.6862C23.927 6.48694 23.6568 6.375 23.375 6.375H3.1875C2.90571 6.375 2.63546 6.48694 2.4362 6.6862C2.23694 6.88546 2.125 7.15571 2.125 7.4375V25.5C2.125 25.7818 2.23694 26.052 2.4362 26.2513C2.63546 26.4506 2.90571 26.5625 3.1875 26.5625H5.46125C5.70592 27.4628 6.24006 28.2576 6.98126 28.8243C7.72245 29.3909 8.62952 29.6979 9.5625 29.6979C10.4955 29.6979 11.4025 29.3909 12.1437 28.8243C12.8849 28.2576 13.4191 27.4628 13.6637 26.5625H20.3363C20.5809 27.4628 21.1151 28.2576 21.8563 28.8243C22.5975 29.3909 23.5045 29.6979 24.4375 29.6979C25.3705 29.6979 26.2775 29.3909 27.0187 28.8243C27.7599 28.2576 28.2941 27.4628 28.5387 26.5625H30.8125C31.0943 26.5625 31.3645 26.4506 31.5638 26.2513C31.7631 26.052 31.875 25.7818 31.875 25.5V18.0625C31.8747 17.9201 31.8458 17.7792 31.79 17.6481ZM24.4375 11.6875H26.9237L29.1975 17H24.4375V11.6875ZM9.5625 27.625C9.14221 27.625 8.73137 27.5004 8.38191 27.2669C8.03246 27.0334 7.76009 26.7015 7.59926 26.3132C7.43842 25.9249 7.39634 25.4976 7.47833 25.0854C7.56032 24.6732 7.76271 24.2946 8.0599 23.9974C8.35708 23.7002 8.73572 23.4978 9.14793 23.4158C9.56014 23.3338 9.98741 23.3759 10.3757 23.5368C10.764 23.6976 11.0959 23.97 11.3294 24.3194C11.5629 24.6689 11.6875 25.0797 11.6875 25.5C11.6875 26.0636 11.4636 26.6041 11.0651 27.0026C10.6666 27.4011 10.1261 27.625 9.5625 27.625ZM20.3363 24.4375H13.6637C13.4191 23.5372 12.8849 22.7424 12.1437 22.1757C11.4025 21.6091 10.4955 21.3021 9.5625 21.3021C8.62952 21.3021 7.72245 21.6091 6.98126 22.1757C6.24006 22.7424 5.70592 23.5372 5.46125 24.4375H4.25V8.5H22.3125V21.845C21.8287 22.1258 21.4051 22.4994 21.0659 22.9442C20.7268 23.3891 20.4788 23.8966 20.3363 24.4375ZM24.4375 27.625C24.0172 27.625 23.6064 27.5004 23.2569 27.2669C22.9075 27.0334 22.6351 26.7015 22.4743 26.3132C22.3134 25.9249 22.2713 25.4976 22.3533 25.0854C22.4353 24.6732 22.6377 24.2946 22.9349 23.9974C23.2321 23.7002 23.6107 23.4978 24.0229 23.4158C24.4351 23.3338 24.8624 23.3759 25.2507 23.5368C25.639 23.6976 25.9709 23.97 26.2044 24.3194C26.4379 24.6689 26.5625 25.0797 26.5625 25.5C26.5625 26.0636 26.3386 26.6041 25.9401 27.0026C25.5416 27.4011 25.0011 27.625 24.4375 27.625ZM29.75 24.4375H28.5387C28.3038 23.5275 27.7738 22.721 27.0317 22.1443C26.2897 21.5675 25.3773 21.2531 24.4375 21.25V19.125H29.75V24.4375Z" fill="white"/>
</svg>
