<svg width="32" height="32" viewBox="0 0 32 32" fill="none" xmlns="http://www.w3.org/2000/svg">
<path d="M21 3H11C9.67441 3.00159 8.40356 3.52888 7.46622 4.46622C6.52888 5.40356 6.00159 6.67441 6 8V20C6.00371 21.0748 6.35437 22.1197 6.99978 22.9792C7.64519 23.8386 8.55085 24.4667 9.582 24.77L7.769 29H9.945L11.659 25H20.341L22.055 29H24.231L22.418 24.77C23.4491 24.4667 24.3548 23.8386 25.0002 22.9792C25.6456 22.1197 25.9963 21.0748 26 20V8C25.9984 6.67441 25.4711 5.40356 24.5338 4.46622C23.5964 3.52888 22.3256 3.00159 21 3ZM11 5H21C21.6184 5.00184 22.2211 5.19507 22.7253 5.55318C23.2296 5.91128 23.6105 6.41669 23.816 7H8.184C8.38945 6.41669 8.77045 5.91128 9.27465 5.55318C9.77886 5.19507 10.3816 5.00184 11 5ZM24 19H21V21H23.816C23.6105 21.5833 23.2296 22.0887 22.7253 22.4468C22.2211 22.8049 21.6184 22.9982 21 23H11C10.3816 22.9982 9.77886 22.8049 9.27465 22.4468C8.77045 22.0887 8.38945 21.5833 8.184 21H11V19H8V17H24V19ZM24 15H8V9H24V15Z" fill="white"/>
</svg>
