<svg width="24" height="24" viewBox="0 0 24 24" fill="none" xmlns="http://www.w3.org/2000/svg">
<path d="M21.0641 4.20225L21.0319 4.18218L16.9729 2.18245L12.5918 8.02387L14.6074 10.7115C14.5471 11.7251 14.1173 12.6814 13.3993 13.3994C12.6813 14.1174 11.725 14.5472 10.7114 14.6075L8.02381 12.5919L2.18243 16.9729L4.16553 20.998L4.18222 21.032L4.20232 21.064C4.30815 21.2345 4.45586 21.3751 4.63139 21.4724C4.80692 21.5697 5.00443 21.6205 5.20512 21.6198H6.2525C8.27056 21.6198 10.2689 21.2223 12.1333 20.4501C13.9978 19.6778 15.6919 18.5458 17.1188 17.1188C18.5458 15.6918 19.6778 13.9977 20.4501 12.1333C21.2223 10.2688 21.6198 8.27053 21.6198 6.25246V5.20504C21.6205 5.00436 21.5697 4.80685 21.4724 4.63132C21.3752 4.45579 21.2346 4.30808 21.0641 4.20225ZM20.1198 6.25246C20.1198 13.8989 13.8989 20.1198 6.2525 20.1198H5.405L4.07815 17.4262L8.02409 14.4668L10.221 16.1144H10.471C11.9673 16.1127 13.4018 15.5176 14.4598 14.4595C15.5179 13.4015 16.113 11.967 16.1147 10.4707V10.2207L14.4671 8.02382L17.4262 4.07812L20.1198 5.4052V6.25246Z" fill="white"/>
</svg>
