<svg width="71" height="71" viewBox="0 0 71 71" fill="none" xmlns="http://www.w3.org/2000/svg">
<path d="M21.8221 24.85L27.2515 11.903L38.4236 20.5691L39.6765 28.0868L37.4839 48.6559L31.5324 24.85L38.4236 20.5691L31.2192 23.5971L27.2515 11.903L30.0706 24.0147L21.8221 24.85L30.4883 25.1632L37.1706 49.0735L36.4397 49.3868L29.9662 34.978L25.1633 33.9338L21.8221 24.85Z" fill="url(#paint0_linear_54_918)"/>
<path d="M38.3192 48.5515L40.7206 24.85L47.403 20.0471L52.3103 26.4162L51.5794 29.9662L48.0295 43.9574L43.2265 46.5676L46.8809 27.0426L52.3103 26.4162L47.0898 26.2074L47.403 20.0471L46.2545 26.2074L40.7206 24.85L46.1501 26.8338L42.8089 46.7765L38.3192 48.5515Z" fill="url(#paint1_linear_54_918)"/>
<path d="M16.497 51.5794C14.8264 48.7394 16.497 46.6721 17.75 45.2103C16.6014 46.15 15.4529 47.5074 14.722 49.3868C13.7823 51.1618 13.7823 53.1456 15.6617 54.7118C18.0631 56.3824 22.8661 56.2542 26.5205 55.7559C33.4117 54.8162 39.1544 52.2059 41.5558 51.3706C42.8101 50.9343 46.5518 49.2779 50.5352 46.8809C54.1787 44.6885 58.0416 41.8526 60.0367 39.2588C64.0043 34.6647 62.5426 31.6368 60.1411 30.5927C58.2617 29.5485 53.4588 29.5485 51.5793 29.9662C52.3668 29.9662 56.0691 29.7599 57.9485 30.9059C62.2294 33.5162 57.8441 38.0059 55.6514 40.1985C51.997 43.6441 45.6279 46.9853 40.9294 49.0735C37.9594 50.3936 32.3328 52.1015 29.8617 52.728C26.1029 53.5284 18.1676 54.4194 16.497 51.5794Z" fill="url(#paint2_linear_54_918)"/>
<path d="M17.1235 43.4353L19.7338 33.6206L29.4441 35.7088L35.7088 49.5956L30.8014 51.0573L24.7456 40.3029L29.4441 35.7088L24.4323 39.7809L19.7338 33.6206L23.597 40.3029L17.1235 43.4353L23.9103 40.9294L30.2794 51.0573C30.2794 51.0573 28.2434 51.4228 27.2514 51.5794C26.2595 51.736 23.9103 51.7882 23.9103 51.7882L17.1235 43.4353Z" fill="url(#paint3_linear_54_918)"/>
<circle cx="35.5" cy="35.5" r="34.7691" stroke="url(#paint4_linear_54_918)" stroke-width="1.46176"/>
<defs>
<linearGradient id="paint0_linear_54_918" x1="30.7493" y1="11.903" x2="30.7493" y2="49.3868" gradientUnits="userSpaceOnUse">
<stop stop-color="#F2F2F2"/>
<stop offset="0.333333" stop-color="#F2F2F2"/>
<stop offset="0.666667" stop-color="#B9C7C9"/>
<stop offset="1" stop-color="#F2F2F2"/>
</linearGradient>
<linearGradient id="paint1_linear_54_918" x1="45.3148" y1="20.0471" x2="45.3148" y2="48.5515" gradientUnits="userSpaceOnUse">
<stop stop-color="#F2F2F2"/>
<stop offset="0.333333" stop-color="#F2F2F2"/>
<stop offset="0.666667" stop-color="#B9C7C9"/>
<stop offset="1" stop-color="#F2F2F2"/>
</linearGradient>
<linearGradient id="paint2_linear_54_918" x1="38.3043" y1="29.7053" x2="38.3043" y2="56.0853" gradientUnits="userSpaceOnUse">
<stop stop-color="#F2F2F2"/>
<stop offset="0.333333" stop-color="#F2F2F2"/>
<stop offset="0.666667" stop-color="#B9C7C9"/>
<stop offset="1" stop-color="#F2F2F2"/>
</linearGradient>
<linearGradient id="paint3_linear_54_918" x1="26.4162" y1="33.6206" x2="26.4162" y2="51.7882" gradientUnits="userSpaceOnUse">
<stop stop-color="#F2F2F2"/>
<stop offset="0.333333" stop-color="#F2F2F2"/>
<stop offset="0.666667" stop-color="#B9C7C9"/>
<stop offset="1" stop-color="#F2F2F2"/>
</linearGradient>
<linearGradient id="paint4_linear_54_918" x1="35.5" y1="0" x2="35.5" y2="81" gradientUnits="userSpaceOnUse">
<stop stop-color="#D0DFE0"/>
<stop offset="0.333333" stop-color="white"/>
<stop offset="0.666667" stop-color="#BEC8C9"/>
<stop offset="1" stop-color="white"/>
</linearGradient>
</defs>
</svg>
