<svg width="33" height="33" viewBox="0 0 33 33" fill="none" xmlns="http://www.w3.org/2000/svg">
<g clip-path="url(#clip0_86_953)">
<path d="M13.2604 5.24479C13.2604 4.9478 13.3784 4.66298 13.5884 4.45298C13.7984 4.24298 14.0832 4.125 14.3802 4.125H21.099C21.3959 4.125 21.6808 4.24298 21.8908 4.45298C22.1008 4.66298 22.2188 4.9478 22.2188 5.24479V8.60417H27.8177C28.1147 8.60417 28.3995 8.72214 28.6095 8.93215C28.8195 9.14215 28.9375 9.42697 28.9375 9.72396V17.6118L31.6228 18.7764C31.7656 18.8386 31.894 18.93 31.9995 19.0447C32.105 19.1594 32.1854 19.2949 32.2356 19.4425C32.2858 19.59 32.3046 19.7464 32.2909 19.9017C32.2771 20.0569 32.2311 20.2076 32.1558 20.3441L29.5915 24.9598C29.2443 24.326 28.8076 23.6676 27.923 23.3518L29.5982 20.3373L19.0744 15.7776C18.653 15.5951 18.1987 15.501 17.7396 15.501C17.2804 15.501 16.8261 15.5951 16.4048 15.7776L5.88099 20.3396L7.5562 23.3541C6.6738 23.6698 6.23484 24.3283 5.88771 24.9621L3.32339 20.3485C3.24647 20.2119 3.19913 20.0605 3.18442 19.9044C3.16972 19.7483 3.18798 19.5908 3.23801 19.4421C3.28805 19.2935 3.36876 19.157 3.4749 19.0416C3.58104 18.9261 3.71025 18.8342 3.85417 18.7719L6.54167 17.6095V9.72396C6.54167 9.42697 6.65964 9.14215 6.86965 8.93215C7.07965 8.72214 7.36447 8.60417 7.66146 8.60417H13.2604V5.24479ZM8.78125 16.6398L15.5134 13.7239C16.2161 13.4194 16.9738 13.2623 17.7396 13.2623C18.5054 13.2623 19.2631 13.4194 19.9657 13.7239L26.6979 16.6398V10.8438H8.78125V16.6398ZM19.9792 6.36458H15.5V8.60417H19.9792V6.36458ZM7.8899 25.8445C7.86228 25.8802 7.83685 25.9176 7.81375 25.9565C7.76294 26.0483 7.71806 26.1433 7.67937 26.2409C7.64374 26.3303 7.60338 26.4178 7.55844 26.5029C7.37121 26.8348 7.13909 27.1393 6.86865 27.4077C6.22812 28.0527 5.10833 28.7604 3.18229 28.7604C2.8853 28.7604 2.60048 28.8784 2.39048 29.0884C2.18048 29.2984 2.0625 29.5832 2.0625 29.8802C2.0625 30.1772 2.18048 30.462 2.39048 30.672C2.60048 30.882 2.8853 31 3.18229 31C5.73766 31 7.41734 30.028 8.45427 28.9933C8.55057 28.8948 8.6424 28.7985 8.7275 28.7022C8.78349 28.7716 8.83948 28.8455 8.89995 28.9172C9.74427 29.9295 11.1552 31 13.2604 31C15.3656 31 16.7766 29.9295 17.6209 28.9172L17.7396 28.7694L17.8583 28.9172C18.7026 29.9295 20.1135 31 22.2188 31C24.324 31 25.7349 29.9295 26.5792 28.9172C26.6397 28.8455 26.6957 28.7716 26.7517 28.6999C26.8368 28.7962 26.9286 28.8948 27.0249 28.9911C28.0618 30.028 29.7415 31 32.2969 31C32.5939 31 32.8787 30.882 33.0887 30.672C33.2987 30.462 33.4167 30.1772 33.4167 29.8802C33.4167 29.5832 33.2987 29.2984 33.0887 29.0884C32.8787 28.8784 32.5939 28.7604 32.2969 28.7604C30.3731 28.7604 29.2533 28.0527 28.6105 27.4077C28.2488 27.0518 27.9597 26.6288 27.7595 26.1625C27.6832 25.9419 27.5401 25.7507 27.35 25.6153C27.16 25.4799 26.9324 25.4071 26.699 25.4071C26.4657 25.4071 26.2381 25.4799 26.048 25.6153C25.858 25.7507 25.7148 25.9419 25.6386 26.1625C25.4496 26.641 25.1866 27.0869 24.8592 27.4839C24.3016 28.1512 23.4707 28.7604 22.2165 28.7604C20.9646 28.7604 20.1337 28.1512 19.5783 27.4839C19.2536 27.09 18.9922 26.648 18.8034 26.1737C18.7568 26.0281 18.6808 25.8937 18.58 25.7788C18.4792 25.664 18.3559 25.5711 18.2176 25.5059C18.0794 25.4408 17.9292 25.4048 17.7764 25.4003C17.6237 25.3957 17.4716 25.4227 17.3297 25.4794C17.1757 25.5392 17.0369 25.6325 16.9234 25.7526C16.8099 25.8727 16.7245 26.0165 16.6735 26.1737C16.4847 26.648 16.2233 27.09 15.8986 27.4839C15.3432 28.1512 14.5146 28.7604 13.2604 28.7604C12.0062 28.7604 11.1776 28.1512 10.6222 27.4839C10.3832 27.1946 10.1781 26.8791 10.0108 26.5432C9.96986 26.4605 9.9325 26.3761 9.8988 26.2902C9.85401 26.1782 9.80922 26.0617 9.74875 25.9587C9.61179 25.7231 9.39361 25.5455 9.1351 25.4593L9.12391 25.4548C8.90326 25.383 8.6657 25.382 8.44445 25.4519C8.2232 25.5217 8.02931 25.659 7.8899 25.8445Z" fill="white"/>
</g>
<defs>
<clipPath id="clip0_86_953">
<rect width="33" height="33" fill="white"/>
</clipPath>
</defs>
</svg>
